# xmcd CD database file
#
# Track frame offsets:
#	150
#	12294
#	25622
#	44676
#	65812
#	86375
#	114527
#	126548
#	140914
#	162929
#	196201
#
# Disc length: 2955 seconds
#
# Revision: 0
# Processed by: cddbd v1.5.2PL0 Copyright (c) Steve Scherf et al.
# Submitted via: CDex 1.51
#
DISCID=9d0b890b
DTITLE=Various Artist - Fania DJ Series, Gilles Peterson [CD2]
DYEAR=2008
DGENRE=Salsa
TTITLE0=Manuel Sanchez Acosta - Saona
TTITLE1=Efrain 'Mon' Rivera - Lluvia con Nieve
TTITLE2=Charlie Palmieri - Sandstorm
TTITLE3=Willie Rosario - Last Tango in Paris
TTITLE4=Vladimir and his Orchestra - Mambo Moderno
TTITLE5=Kako's New York After Hours Orchestra - Vitamina
TTITLE6=Eddie Palmieri - El Molestoso
TTITLE7=Tito Puente and his Concert Orchestra - El Rey del Timbal
TTITLE8=Sabu Martinez - The Oracle
TTITLE9=Alegre All Stars - Manteca
TTITLE10=Tito Puente - La Odisea de Tito
EXTD=YEAR: 2008
EXTT0=
EXTT1=
EXTT2=
EXTT3=
EXTT4=
EXTT5=
EXTT6=
EXTT7=
EXTT8=
EXTT9=
EXTT10=
PLAYORDER=
